# xmcd
#
# Track frame offsets: 
#        150
#        10936
#        28940
#        49479
#        65105
#        76205
#        99367
#        115310
#        136280
#        151568
#        166138
#        187979
#        207957
#        220653
#
# Disc length: 3232 seconds
#
# Revision: 0
# Processed by: cddbd v1.5.2PL0 Copyright (c) Steve Scherf et al.
# Submitted via: ExactAudioCopy v0.99pb4
#
DISCID=b70c9e0e
DTITLE=Jj Milteau - Soul Conversation
DYEAR=2008
DGENRE=Blues
TTITLE0=Jj Milteau - Wooosh !
TTITLE1=Jj Milteau - Rock 'N' Roll Will Never Die
TTITLE2=Jj Milteau - Is This The Way
TTITLE3=Jj Milteau - It's So Real
TTITLE4=Jj Milteau - Hole In The Wall (Burgers N' Blues)
TTITLE5=Jj Milteau - You Can't Always Get What You Want
TTITLE6=Jj Milteau - You Never Know
TTITLE7=Jj Milteau - Summer Moments
TTITLE8=Jj Milteau - Tchoupitoula
TTITLE9=Jj Milteau - People Get Ready
TTITLE10=Jj Milteau - Long Time Gone
TTITLE11=Jj Milteau - Down In Mississippi
TTITLE12=Jj Milteau - Beaumont Lafayette
TTITLE13=Jj Milteau - Will You Come
EXTD=
EXTT0=
EXTT1=
EXTT2=
EXTT3=
EXTT4=
EXTT5=
EXTT6=
EXTT7=
EXTT8=
EXTT9=
EXTT10=
EXTT11=
EXTT12=
EXTT13=
PLAYORDER=
